<?xml version="1.0" encoding="UTF-8" standalone="no"?>
<!DOCTYPE svg PUBLIC "-//W3C//DTD SVG 1.1//EN"
 "http://www.w3.org/Graphics/SVG/1.1/DTD/svg11.dtd">
<!-- Generated by graphviz version 2.36.0 (20140111.2315)
 -->
<!-- Title: controllers_diagram Pages: 1 -->
<svg width="637pt" height="596pt"
 viewBox="0.00 0.00 637.00 596.00" xmlns="http://www.w3.org/2000/svg" xmlns:xlink="http://www.w3.org/1999/xlink">
<g id="graph0" class="graph" transform="scale(1 1) rotate(0) translate(4 592)">
<title>controllers_diagram</title>
<polygon fill="white" stroke="none" points="-4,4 -4,-592 633,-592 633,4 -4,4"/>
<!-- _diagram_info -->
<g id="node1" class="node"><title>_diagram_info</title>
<text text-anchor="start" x="331" y="-63.6" font-family="Times,serif" font-size="13.00">Controllers diagram</text>
<text text-anchor="start" x="331" y="-49.6" font-family="Times,serif" font-size="13.00">Date: Jan 25 2015 &#45; 18:27</text>
<text text-anchor="start" x="331" y="-35.6" font-family="Times,serif" font-size="13.00">Migration version: 20150122200112</text>
<text text-anchor="start" x="331" y="-21.6" font-family="Times,serif" font-size="13.00">Generated by RailRoady 1.3.0</text>
<text text-anchor="start" x="331" y="-7.6" font-family="Times,serif" font-size="13.00">http://railroady.prestonlee.com</text>
</g>
<!-- UsersController -->
<g id="node2" class="node"><title>UsersController</title>
<path fill="none" stroke="black" d="M46,-408.5C46,-408.5 125,-408.5 125,-408.5 131,-408.5 137,-414.5 137,-420.5 137,-420.5 137,-549.5 137,-549.5 137,-555.5 131,-561.5 125,-561.5 125,-561.5 46,-561.5 46,-561.5 40,-561.5 34,-555.5 34,-549.5 34,-549.5 34,-420.5 34,-420.5 34,-414.5 40,-408.5 46,-408.5"/>
<text text-anchor="middle" x="85.5" y="-546.3" font-family="Times,serif" font-size="14.00">UsersController</text>
<polyline fill="none" stroke="black" points="34,-538.5 137,-538.5 "/>
<text text-anchor="start" x="42" y="-523.3" font-family="Times,serif" font-size="14.00">destroy</text>
<text text-anchor="start" x="42" y="-508.3" font-family="Times,serif" font-size="14.00">index</text>
<text text-anchor="start" x="42" y="-493.3" font-family="Times,serif" font-size="14.00">show</text>
<text text-anchor="start" x="42" y="-478.3" font-family="Times,serif" font-size="14.00">update</text>
<polyline fill="none" stroke="black" points="34,-470.5 137,-470.5 "/>
<polyline fill="none" stroke="black" points="34,-446.5 137,-446.5 "/>
<text text-anchor="start" x="42" y="-431.3" font-family="Times,serif" font-size="14.00">_layout</text>
<text text-anchor="start" x="42" y="-416.3" font-family="Times,serif" font-size="14.00">secure_params</text>
</g>
<!-- VisitorsController -->
<g id="node3" class="node"><title>VisitorsController</title>
<path fill="none" stroke="black" d="M12,-289.5C12,-289.5 103,-289.5 103,-289.5 109,-289.5 115,-295.5 115,-301.5 115,-301.5 115,-370.5 115,-370.5 115,-376.5 109,-382.5 103,-382.5 103,-382.5 12,-382.5 12,-382.5 6,-382.5 0,-376.5 0,-370.5 0,-370.5 0,-301.5 0,-301.5 0,-295.5 6,-289.5 12,-289.5"/>
<text text-anchor="middle" x="57.5" y="-367.3" font-family="Times,serif" font-size="14.00">VisitorsController</text>
<polyline fill="none" stroke="black" points="0,-359.5 115,-359.5 "/>
<text text-anchor="start" x="8" y="-344.3" font-family="Times,serif" font-size="14.00">index</text>
<polyline fill="none" stroke="black" points="0,-336.5 115,-336.5 "/>
<polyline fill="none" stroke="black" points="0,-312.5 115,-312.5 "/>
<text text-anchor="start" x="8" y="-297.3" font-family="Times,serif" font-size="14.00">_layout</text>
</g>
<!-- CommentsController -->
<g id="node4" class="node"><title>CommentsController</title>
<path fill="none" stroke="black" d="M335,-119.5C335,-119.5 443,-119.5 443,-119.5 449,-119.5 455,-125.5 455,-131.5 455,-131.5 455,-320.5 455,-320.5 455,-326.5 449,-332.5 443,-332.5 443,-332.5 335,-332.5 335,-332.5 329,-332.5 323,-326.5 323,-320.5 323,-320.5 323,-131.5 323,-131.5 323,-125.5 329,-119.5 335,-119.5"/>
<text text-anchor="middle" x="389" y="-317.3" font-family="Times,serif" font-size="14.00">CommentsController</text>
<polyline fill="none" stroke="black" points="323,-309.5 455,-309.5 "/>
<text text-anchor="start" x="331" y="-294.3" font-family="Times,serif" font-size="14.00">create</text>
<text text-anchor="start" x="331" y="-279.3" font-family="Times,serif" font-size="14.00">destroy</text>
<text text-anchor="start" x="331" y="-264.3" font-family="Times,serif" font-size="14.00">edit</text>
<text text-anchor="start" x="331" y="-249.3" font-family="Times,serif" font-size="14.00">index</text>
<text text-anchor="start" x="331" y="-234.3" font-family="Times,serif" font-size="14.00">new</text>
<text text-anchor="start" x="331" y="-219.3" font-family="Times,serif" font-size="14.00">show</text>
<text text-anchor="start" x="331" y="-204.3" font-family="Times,serif" font-size="14.00">update</text>
<polyline fill="none" stroke="black" points="323,-196.5 455,-196.5 "/>
<polyline fill="none" stroke="black" points="323,-172.5 455,-172.5 "/>
<text text-anchor="start" x="331" y="-157.3" font-family="Times,serif" font-size="14.00">_layout</text>
<text text-anchor="start" x="331" y="-142.3" font-family="Times,serif" font-size="14.00">comment_params</text>
<text text-anchor="start" x="331" y="-127.3" font-family="Times,serif" font-size="14.00">set_comment</text>
</g>
<!-- CoursesController -->
<g id="node5" class="node"><title>CoursesController</title>
<path fill="none" stroke="black" d="M182,-340.5C182,-340.5 274,-340.5 274,-340.5 280,-340.5 286,-346.5 286,-352.5 286,-352.5 286,-541.5 286,-541.5 286,-547.5 280,-553.5 274,-553.5 274,-553.5 182,-553.5 182,-553.5 176,-553.5 170,-547.5 170,-541.5 170,-541.5 170,-352.5 170,-352.5 170,-346.5 176,-340.5 182,-340.5"/>
<text text-anchor="middle" x="228" y="-538.3" font-family="Times,serif" font-size="14.00">CoursesController</text>
<polyline fill="none" stroke="black" points="170,-530.5 286,-530.5 "/>
<text text-anchor="start" x="178" y="-515.3" font-family="Times,serif" font-size="14.00">create</text>
<text text-anchor="start" x="178" y="-500.3" font-family="Times,serif" font-size="14.00">destroy</text>
<text text-anchor="start" x="178" y="-485.3" font-family="Times,serif" font-size="14.00">edit</text>
<text text-anchor="start" x="178" y="-470.3" font-family="Times,serif" font-size="14.00">index</text>
<text text-anchor="start" x="178" y="-455.3" font-family="Times,serif" font-size="14.00">new</text>
<text text-anchor="start" x="178" y="-440.3" font-family="Times,serif" font-size="14.00">show</text>
<text text-anchor="start" x="178" y="-425.3" font-family="Times,serif" font-size="14.00">update</text>
<polyline fill="none" stroke="black" points="170,-417.5 286,-417.5 "/>
<polyline fill="none" stroke="black" points="170,-393.5 286,-393.5 "/>
<text text-anchor="start" x="178" y="-378.3" font-family="Times,serif" font-size="14.00">_layout</text>
<text text-anchor="start" x="178" y="-363.3" font-family="Times,serif" font-size="14.00">course_params</text>
<text text-anchor="start" x="178" y="-348.3" font-family="Times,serif" font-size="14.00">set_course</text>
</g>
<!-- PartsController -->
<g id="node6" class="node"><title>PartsController</title>
<path fill="none" stroke="black" d="M420,-374.5C420,-374.5 495,-374.5 495,-374.5 501,-374.5 507,-380.5 507,-386.5 507,-386.5 507,-575.5 507,-575.5 507,-581.5 501,-587.5 495,-587.5 495,-587.5 420,-587.5 420,-587.5 414,-587.5 408,-581.5 408,-575.5 408,-575.5 408,-386.5 408,-386.5 408,-380.5 414,-374.5 420,-374.5"/>
<text text-anchor="middle" x="457.5" y="-572.3" font-family="Times,serif" font-size="14.00">PartsController</text>
<polyline fill="none" stroke="black" points="408,-564.5 507,-564.5 "/>
<text text-anchor="start" x="416" y="-549.3" font-family="Times,serif" font-size="14.00">create</text>
<text text-anchor="start" x="416" y="-534.3" font-family="Times,serif" font-size="14.00">destroy</text>
<text text-anchor="start" x="416" y="-519.3" font-family="Times,serif" font-size="14.00">edit</text>
<text text-anchor="start" x="416" y="-504.3" font-family="Times,serif" font-size="14.00">index</text>
<text text-anchor="start" x="416" y="-489.3" font-family="Times,serif" font-size="14.00">new</text>
<text text-anchor="start" x="416" y="-474.3" font-family="Times,serif" font-size="14.00">show</text>
<text text-anchor="start" x="416" y="-459.3" font-family="Times,serif" font-size="14.00">update</text>
<polyline fill="none" stroke="black" points="408,-451.5 507,-451.5 "/>
<polyline fill="none" stroke="black" points="408,-427.5 507,-427.5 "/>
<text text-anchor="start" x="416" y="-412.3" font-family="Times,serif" font-size="14.00">_layout</text>
<text text-anchor="start" x="416" y="-397.3" font-family="Times,serif" font-size="14.00">part_params</text>
<text text-anchor="start" x="416" y="-382.3" font-family="Times,serif" font-size="14.00">set_part</text>
</g>
<!-- ApplicationController -->
<g id="node7" class="node"><title>ApplicationController</title>
<path fill="none" stroke="black" d="M505,-119.5C505,-119.5 617,-119.5 617,-119.5 623,-119.5 629,-125.5 629,-131.5 629,-131.5 629,-201.5 629,-201.5 629,-207.5 623,-213.5 617,-213.5 617,-213.5 505,-213.5 505,-213.5 499,-213.5 493,-207.5 493,-201.5 493,-201.5 493,-131.5 493,-131.5 493,-125.5 499,-119.5 505,-119.5"/>
<text text-anchor="middle" x="561" y="-198.3" font-family="Times,serif" font-size="14.00">ApplicationController</text>
<polyline fill="none" stroke="black" points="493,-190.5 629,-190.5 "/>
<polyline fill="none" stroke="black" points="493,-166.5 629,-166.5 "/>
<polyline fill="none" stroke="black" points="493,-142.5 629,-142.5 "/>
<text text-anchor="start" x="501" y="-127.3" font-family="Times,serif" font-size="14.00">_layout</text>
</g>
<!-- HomeworksController -->
<g id="node8" class="node"><title>HomeworksController</title>
<path fill="none" stroke="black" d="M165,-85.5C165,-85.5 280,-85.5 280,-85.5 286,-85.5 292,-91.5 292,-97.5 292,-97.5 292,-286.5 292,-286.5 292,-292.5 286,-298.5 280,-298.5 280,-298.5 165,-298.5 165,-298.5 159,-298.5 153,-292.5 153,-286.5 153,-286.5 153,-97.5 153,-97.5 153,-91.5 159,-85.5 165,-85.5"/>
<text text-anchor="middle" x="222.5" y="-283.3" font-family="Times,serif" font-size="14.00">HomeworksController</text>
<polyline fill="none" stroke="black" points="153,-275.5 292,-275.5 "/>
<text text-anchor="start" x="161" y="-260.3" font-family="Times,serif" font-size="14.00">create</text>
<text text-anchor="start" x="161" y="-245.3" font-family="Times,serif" font-size="14.00">destroy</text>
<text text-anchor="start" x="161" y="-230.3" font-family="Times,serif" font-size="14.00">edit</text>
<text text-anchor="start" x="161" y="-215.3" font-family="Times,serif" font-size="14.00">index</text>
<text text-anchor="start" x="161" y="-200.3" font-family="Times,serif" font-size="14.00">new</text>
<text text-anchor="start" x="161" y="-185.3" font-family="Times,serif" font-size="14.00">show</text>
<text text-anchor="start" x="161" y="-170.3" font-family="Times,serif" font-size="14.00">update</text>
<polyline fill="none" stroke="black" points="153,-162.5 292,-162.5 "/>
<polyline fill="none" stroke="black" points="153,-138.5 292,-138.5 "/>
<text text-anchor="start" x="161" y="-123.3" font-family="Times,serif" font-size="14.00">_layout</text>
<text text-anchor="start" x="161" y="-108.3" font-family="Times,serif" font-size="14.00">homework_params</text>
<text text-anchor="start" x="161" y="-93.3" font-family="Times,serif" font-size="14.00">set_homework</text>
</g>
</g>
</svg>
