<?xml version="1.0" encoding="UTF-8" standalone="no"?>
<!DOCTYPE svg PUBLIC "-//W3C//DTD SVG 1.1//EN"
 "http://www.w3.org/Graphics/SVG/1.1/DTD/svg11.dtd">
<!-- Generated by graphviz version 2.36.0 (20140111.2315)
 -->
<!-- Title: controllers_diagram Pages: 1 -->
<svg width="647pt" height="630pt"
 viewBox="0.00 0.00 647.00 630.00" xmlns="http://www.w3.org/2000/svg" xmlns:xlink="http://www.w3.org/1999/xlink">
<g id="graph0" class="graph" transform="scale(1 1) rotate(0) translate(4 626)">
<title>controllers_diagram</title>
<polygon fill="white" stroke="none" points="-4,4 -4,-626 643,-626 643,4 -4,4"/>
<!-- _diagram_info -->
<g id="node1" class="node"><title>_diagram_info</title>
<text text-anchor="start" x="331" y="-97.6" font-family="Times,serif" font-size="13.00">Controllers diagram</text>
<text text-anchor="start" x="331" y="-83.6" font-family="Times,serif" font-size="13.00">Date: Mar 16 2015 &#45; 13:15</text>
<text text-anchor="start" x="331" y="-69.6" font-family="Times,serif" font-size="13.00">Migration version: 20150315213135</text>
<text text-anchor="start" x="331" y="-55.6" font-family="Times,serif" font-size="13.00">Generated by RailRoady 1.3.0</text>
<text text-anchor="start" x="331" y="-41.6" font-family="Times,serif" font-size="13.00">http://railroady.prestonlee.com</text>
</g>
<!-- RatingsController -->
<g id="node2" class="node"><title>RatingsController</title>
<path fill="none" stroke="black" d="M12,-187.5C12,-187.5 101,-187.5 101,-187.5 107,-187.5 113,-193.5 113,-199.5 113,-199.5 113,-268.5 113,-268.5 113,-274.5 107,-280.5 101,-280.5 101,-280.5 12,-280.5 12,-280.5 6,-280.5 0,-274.5 0,-268.5 0,-268.5 0,-199.5 0,-199.5 0,-193.5 6,-187.5 12,-187.5"/>
<text text-anchor="middle" x="56.5" y="-265.3" font-family="Times,serif" font-size="14.00">RatingsController</text>
<polyline fill="none" stroke="black" points="0,-257.5 113,-257.5 "/>
<text text-anchor="start" x="8" y="-242.3" font-family="Times,serif" font-size="14.00">update</text>
<polyline fill="none" stroke="black" points="0,-234.5 113,-234.5 "/>
<polyline fill="none" stroke="black" points="0,-210.5 113,-210.5 "/>
<text text-anchor="start" x="8" y="-195.3" font-family="Times,serif" font-size="14.00">_layout</text>
</g>
<!-- UsersController -->
<g id="node3" class="node"><title>UsersController</title>
<path fill="none" stroke="black" d="M46,-442.5C46,-442.5 125,-442.5 125,-442.5 131,-442.5 137,-448.5 137,-454.5 137,-454.5 137,-598.5 137,-598.5 137,-604.5 131,-610.5 125,-610.5 125,-610.5 46,-610.5 46,-610.5 40,-610.5 34,-604.5 34,-598.5 34,-598.5 34,-454.5 34,-454.5 34,-448.5 40,-442.5 46,-442.5"/>
<text text-anchor="middle" x="85.5" y="-595.3" font-family="Times,serif" font-size="14.00">UsersController</text>
<polyline fill="none" stroke="black" points="34,-587.5 137,-587.5 "/>
<text text-anchor="start" x="42" y="-572.3" font-family="Times,serif" font-size="14.00">destroy</text>
<text text-anchor="start" x="42" y="-557.3" font-family="Times,serif" font-size="14.00">edit</text>
<text text-anchor="start" x="42" y="-542.3" font-family="Times,serif" font-size="14.00">index</text>
<text text-anchor="start" x="42" y="-527.3" font-family="Times,serif" font-size="14.00">show</text>
<text text-anchor="start" x="42" y="-512.3" font-family="Times,serif" font-size="14.00">update</text>
<polyline fill="none" stroke="black" points="34,-504.5 137,-504.5 "/>
<polyline fill="none" stroke="black" points="34,-480.5 137,-480.5 "/>
<text text-anchor="start" x="42" y="-465.3" font-family="Times,serif" font-size="14.00">_layout</text>
<text text-anchor="start" x="42" y="-450.3" font-family="Times,serif" font-size="14.00">secure_params</text>
</g>
<!-- VisitorsController -->
<g id="node4" class="node"><title>VisitorsController</title>
<path fill="none" stroke="black" d="M505,-289.5C505,-289.5 596,-289.5 596,-289.5 602,-289.5 608,-295.5 608,-301.5 608,-301.5 608,-370.5 608,-370.5 608,-376.5 602,-382.5 596,-382.5 596,-382.5 505,-382.5 505,-382.5 499,-382.5 493,-376.5 493,-370.5 493,-370.5 493,-301.5 493,-301.5 493,-295.5 499,-289.5 505,-289.5"/>
<text text-anchor="middle" x="550.5" y="-367.3" font-family="Times,serif" font-size="14.00">VisitorsController</text>
<polyline fill="none" stroke="black" points="493,-359.5 608,-359.5 "/>
<text text-anchor="start" x="501" y="-344.3" font-family="Times,serif" font-size="14.00">index</text>
<polyline fill="none" stroke="black" points="493,-336.5 608,-336.5 "/>
<polyline fill="none" stroke="black" points="493,-312.5 608,-312.5 "/>
<text text-anchor="start" x="501" y="-297.3" font-family="Times,serif" font-size="14.00">_layout</text>
</g>
<!-- AdminController -->
<g id="node5" class="node"><title>AdminController</title>
<path fill="none" stroke="black" d="M29,-306.5C29,-306.5 115,-306.5 115,-306.5 121,-306.5 127,-312.5 127,-318.5 127,-318.5 127,-402.5 127,-402.5 127,-408.5 121,-414.5 115,-414.5 115,-414.5 29,-414.5 29,-414.5 23,-414.5 17,-408.5 17,-402.5 17,-402.5 17,-318.5 17,-318.5 17,-312.5 23,-306.5 29,-306.5"/>
<text text-anchor="middle" x="72" y="-399.3" font-family="Times,serif" font-size="14.00">AdminController</text>
<polyline fill="none" stroke="black" points="17,-391.5 127,-391.5 "/>
<text text-anchor="start" x="25" y="-376.3" font-family="Times,serif" font-size="14.00">courses</text>
<text text-anchor="start" x="25" y="-361.3" font-family="Times,serif" font-size="14.00">index</text>
<polyline fill="none" stroke="black" points="17,-353.5 127,-353.5 "/>
<polyline fill="none" stroke="black" points="17,-329.5 127,-329.5 "/>
<text text-anchor="start" x="25" y="-314.3" font-family="Times,serif" font-size="14.00">_layout</text>
</g>
<!-- CommentsController -->
<g id="node6" class="node"><title>CommentsController</title>
<path fill="none" stroke="black" d="M335,-153.5C335,-153.5 443,-153.5 443,-153.5 449,-153.5 455,-159.5 455,-165.5 455,-165.5 455,-354.5 455,-354.5 455,-360.5 449,-366.5 443,-366.5 443,-366.5 335,-366.5 335,-366.5 329,-366.5 323,-360.5 323,-354.5 323,-354.5 323,-165.5 323,-165.5 323,-159.5 329,-153.5 335,-153.5"/>
<text text-anchor="middle" x="389" y="-351.3" font-family="Times,serif" font-size="14.00">CommentsController</text>
<polyline fill="none" stroke="black" points="323,-343.5 455,-343.5 "/>
<text text-anchor="start" x="331" y="-328.3" font-family="Times,serif" font-size="14.00">create</text>
<text text-anchor="start" x="331" y="-313.3" font-family="Times,serif" font-size="14.00">destroy</text>
<text text-anchor="start" x="331" y="-298.3" font-family="Times,serif" font-size="14.00">edit</text>
<text text-anchor="start" x="331" y="-283.3" font-family="Times,serif" font-size="14.00">index</text>
<text text-anchor="start" x="331" y="-268.3" font-family="Times,serif" font-size="14.00">new</text>
<text text-anchor="start" x="331" y="-253.3" font-family="Times,serif" font-size="14.00">show</text>
<text text-anchor="start" x="331" y="-238.3" font-family="Times,serif" font-size="14.00">update</text>
<polyline fill="none" stroke="black" points="323,-230.5 455,-230.5 "/>
<polyline fill="none" stroke="black" points="323,-206.5 455,-206.5 "/>
<text text-anchor="start" x="331" y="-191.3" font-family="Times,serif" font-size="14.00">_layout</text>
<text text-anchor="start" x="331" y="-176.3" font-family="Times,serif" font-size="14.00">comment_params</text>
<text text-anchor="start" x="331" y="-161.3" font-family="Times,serif" font-size="14.00">set_comment</text>
</g>
<!-- CoursesController -->
<g id="node7" class="node"><title>CoursesController</title>
<path fill="none" stroke="black" d="M182,-374.5C182,-374.5 274,-374.5 274,-374.5 280,-374.5 286,-380.5 286,-386.5 286,-386.5 286,-590.5 286,-590.5 286,-596.5 280,-602.5 274,-602.5 274,-602.5 182,-602.5 182,-602.5 176,-602.5 170,-596.5 170,-590.5 170,-590.5 170,-386.5 170,-386.5 170,-380.5 176,-374.5 182,-374.5"/>
<text text-anchor="middle" x="228" y="-587.3" font-family="Times,serif" font-size="14.00">CoursesController</text>
<polyline fill="none" stroke="black" points="170,-579.5 286,-579.5 "/>
<text text-anchor="start" x="178" y="-564.3" font-family="Times,serif" font-size="14.00">create</text>
<text text-anchor="start" x="178" y="-549.3" font-family="Times,serif" font-size="14.00">destroy</text>
<text text-anchor="start" x="178" y="-534.3" font-family="Times,serif" font-size="14.00">edit</text>
<text text-anchor="start" x="178" y="-519.3" font-family="Times,serif" font-size="14.00">index</text>
<text text-anchor="start" x="178" y="-504.3" font-family="Times,serif" font-size="14.00">manage</text>
<text text-anchor="start" x="178" y="-489.3" font-family="Times,serif" font-size="14.00">new</text>
<text text-anchor="start" x="178" y="-474.3" font-family="Times,serif" font-size="14.00">show</text>
<text text-anchor="start" x="178" y="-459.3" font-family="Times,serif" font-size="14.00">update</text>
<polyline fill="none" stroke="black" points="170,-451.5 286,-451.5 "/>
<polyline fill="none" stroke="black" points="170,-427.5 286,-427.5 "/>
<text text-anchor="start" x="178" y="-412.3" font-family="Times,serif" font-size="14.00">_layout</text>
<text text-anchor="start" x="178" y="-397.3" font-family="Times,serif" font-size="14.00">course_params</text>
<text text-anchor="start" x="178" y="-382.3" font-family="Times,serif" font-size="14.00">set_course</text>
</g>
<!-- UserCabinetController -->
<g id="node8" class="node"><title>UserCabinetController</title>
<path fill="none" stroke="black" d="M505,-153.5C505,-153.5 627,-153.5 627,-153.5 633,-153.5 639,-159.5 639,-165.5 639,-165.5 639,-249.5 639,-249.5 639,-255.5 633,-261.5 627,-261.5 627,-261.5 505,-261.5 505,-261.5 499,-261.5 493,-255.5 493,-249.5 493,-249.5 493,-165.5 493,-165.5 493,-159.5 499,-153.5 505,-153.5"/>
<text text-anchor="middle" x="566" y="-246.3" font-family="Times,serif" font-size="14.00">UserCabinetController</text>
<polyline fill="none" stroke="black" points="493,-238.5 639,-238.5 "/>
<text text-anchor="start" x="501" y="-223.3" font-family="Times,serif" font-size="14.00">courses</text>
<polyline fill="none" stroke="black" points="493,-215.5 639,-215.5 "/>
<polyline fill="none" stroke="black" points="493,-191.5 639,-191.5 "/>
<text text-anchor="start" x="501" y="-176.3" font-family="Times,serif" font-size="14.00">_layout</text>
<text text-anchor="start" x="501" y="-161.3" font-family="Times,serif" font-size="14.00">get_course_ids_by_role</text>
</g>
<!-- PartsController -->
<g id="node9" class="node"><title>PartsController</title>
<path fill="none" stroke="black" d="M420,-408.5C420,-408.5 495,-408.5 495,-408.5 501,-408.5 507,-414.5 507,-420.5 507,-420.5 507,-609.5 507,-609.5 507,-615.5 501,-621.5 495,-621.5 495,-621.5 420,-621.5 420,-621.5 414,-621.5 408,-615.5 408,-609.5 408,-609.5 408,-420.5 408,-420.5 408,-414.5 414,-408.5 420,-408.5"/>
<text text-anchor="middle" x="457.5" y="-606.3" font-family="Times,serif" font-size="14.00">PartsController</text>
<polyline fill="none" stroke="black" points="408,-598.5 507,-598.5 "/>
<text text-anchor="start" x="416" y="-583.3" font-family="Times,serif" font-size="14.00">create</text>
<text text-anchor="start" x="416" y="-568.3" font-family="Times,serif" font-size="14.00">destroy</text>
<text text-anchor="start" x="416" y="-553.3" font-family="Times,serif" font-size="14.00">edit</text>
<text text-anchor="start" x="416" y="-538.3" font-family="Times,serif" font-size="14.00">index</text>
<text text-anchor="start" x="416" y="-523.3" font-family="Times,serif" font-size="14.00">new</text>
<text text-anchor="start" x="416" y="-508.3" font-family="Times,serif" font-size="14.00">show</text>
<text text-anchor="start" x="416" y="-493.3" font-family="Times,serif" font-size="14.00">update</text>
<polyline fill="none" stroke="black" points="408,-485.5 507,-485.5 "/>
<polyline fill="none" stroke="black" points="408,-461.5 507,-461.5 "/>
<text text-anchor="start" x="416" y="-446.3" font-family="Times,serif" font-size="14.00">_layout</text>
<text text-anchor="start" x="416" y="-431.3" font-family="Times,serif" font-size="14.00">part_params</text>
<text text-anchor="start" x="416" y="-416.3" font-family="Times,serif" font-size="14.00">set_part</text>
</g>
<!-- ApplicationController -->
<g id="node10" class="node"><title>ApplicationController</title>
<path fill="none" stroke="black" d="M12,-0.5C12,-0.5 182,-0.5 182,-0.5 188,-0.5 194,-6.5 194,-12.5 194,-12.5 194,-81.5 194,-81.5 194,-87.5 188,-93.5 182,-93.5 182,-93.5 12,-93.5 12,-93.5 6,-93.5 -2.84217e-14,-87.5 -2.84217e-14,-81.5 -2.84217e-14,-81.5 -2.84217e-14,-12.5 -2.84217e-14,-12.5 -2.84217e-14,-6.5 6,-0.5 12,-0.5"/>
<text text-anchor="middle" x="97" y="-78.3" font-family="Times,serif" font-size="14.00">ApplicationController</text>
<polyline fill="none" stroke="black" points="-2.84217e-14,-70.5 194,-70.5 "/>
<polyline fill="none" stroke="black" points="-2.84217e-14,-46.5 194,-46.5 "/>
<text text-anchor="start" x="8" y="-31.3" font-family="Times,serif" font-size="14.00">configure_permitted_parameters</text>
<polyline fill="none" stroke="black" points="-2.84217e-14,-23.5 194,-23.5 "/>
<text text-anchor="start" x="8" y="-8.3" font-family="Times,serif" font-size="14.00">_layout</text>
</g>
<!-- HomeworksController -->
<g id="node11" class="node"><title>HomeworksController</title>
<path fill="none" stroke="black" d="M165,-119.5C165,-119.5 280,-119.5 280,-119.5 286,-119.5 292,-125.5 292,-131.5 292,-131.5 292,-320.5 292,-320.5 292,-326.5 286,-332.5 280,-332.5 280,-332.5 165,-332.5 165,-332.5 159,-332.5 153,-326.5 153,-320.5 153,-320.5 153,-131.5 153,-131.5 153,-125.5 159,-119.5 165,-119.5"/>
<text text-anchor="middle" x="222.5" y="-317.3" font-family="Times,serif" font-size="14.00">HomeworksController</text>
<polyline fill="none" stroke="black" points="153,-309.5 292,-309.5 "/>
<text text-anchor="start" x="161" y="-294.3" font-family="Times,serif" font-size="14.00">create</text>
<text text-anchor="start" x="161" y="-279.3" font-family="Times,serif" font-size="14.00">destroy</text>
<text text-anchor="start" x="161" y="-264.3" font-family="Times,serif" font-size="14.00">edit</text>
<text text-anchor="start" x="161" y="-249.3" font-family="Times,serif" font-size="14.00">index</text>
<text text-anchor="start" x="161" y="-234.3" font-family="Times,serif" font-size="14.00">new</text>
<text text-anchor="start" x="161" y="-219.3" font-family="Times,serif" font-size="14.00">show</text>
<text text-anchor="start" x="161" y="-204.3" font-family="Times,serif" font-size="14.00">update</text>
<polyline fill="none" stroke="black" points="153,-196.5 292,-196.5 "/>
<polyline fill="none" stroke="black" points="153,-172.5 292,-172.5 "/>
<text text-anchor="start" x="161" y="-157.3" font-family="Times,serif" font-size="14.00">_layout</text>
<text text-anchor="start" x="161" y="-142.3" font-family="Times,serif" font-size="14.00">homework_params</text>
<text text-anchor="start" x="161" y="-127.3" font-family="Times,serif" font-size="14.00">set_homework</text>
</g>
</g>
</svg>
