<?xml version="1.0" encoding="UTF-8" standalone="no"?>
<!DOCTYPE svg PUBLIC "-//W3C//DTD SVG 1.1//EN"
 "http://www.w3.org/Graphics/SVG/1.1/DTD/svg11.dtd">
<!-- Generated by graphviz version 2.36.0 (20140111.2315)
 -->
<!-- Title: models_diagram Pages: 1 -->
<svg width="370pt" height="712pt"
 viewBox="0.00 0.00 370.00 712.00" xmlns="http://www.w3.org/2000/svg" xmlns:xlink="http://www.w3.org/1999/xlink">
<g id="graph0" class="graph" transform="scale(1 1) rotate(0) translate(4 708)">
<title>models_diagram</title>
<polygon fill="white" stroke="none" points="-4,4 -4,-708 366,-708 366,4 -4,4"/>
<!-- _diagram_info -->
<g id="node1" class="node"><title>_diagram_info</title>
<text text-anchor="start" x="7" y="-674.6" font-family="Times,serif" font-size="13.00">Models diagram</text>
<text text-anchor="start" x="7" y="-660.6" font-family="Times,serif" font-size="13.00">Date: Jan 25 2015 &#45; 18:27</text>
<text text-anchor="start" x="7" y="-646.6" font-family="Times,serif" font-size="13.00">Migration version: 20150122200112</text>
<text text-anchor="start" x="7" y="-632.6" font-family="Times,serif" font-size="13.00">Generated by RailRoady 1.3.0</text>
<text text-anchor="start" x="7" y="-618.6" font-family="Times,serif" font-size="13.00">http://railroady.prestonlee.com</text>
</g>
<!-- User -->
<g id="node2" class="node"><title>User</title>
<path fill="none" stroke="black" d="M25,-303C25,-303 201,-303 201,-303 207,-303 213,-309 213,-315 213,-315 213,-547 213,-547 213,-553 207,-559 201,-559 201,-559 25,-559 25,-559 19,-559 13,-553 13,-547 13,-547 13,-315 13,-315 13,-309 19,-303 25,-303"/>
<text text-anchor="middle" x="113" y="-543.8" font-family="Times,serif" font-size="14.00">User</text>
<polyline fill="none" stroke="black" points="13,-536 213,-536 "/>
<text text-anchor="start" x="21" y="-520.8" font-family="Times,serif" font-size="14.00">id :integer</text>
<text text-anchor="start" x="21" y="-505.8" font-family="Times,serif" font-size="14.00">email :string</text>
<text text-anchor="start" x="21" y="-490.8" font-family="Times,serif" font-size="14.00">encrypted_password :string</text>
<text text-anchor="start" x="21" y="-475.8" font-family="Times,serif" font-size="14.00">reset_password_token :string</text>
<text text-anchor="start" x="21" y="-460.8" font-family="Times,serif" font-size="14.00">reset_password_sent_at :datetime</text>
<text text-anchor="start" x="21" y="-445.8" font-family="Times,serif" font-size="14.00">remember_created_at :datetime</text>
<text text-anchor="start" x="21" y="-430.8" font-family="Times,serif" font-size="14.00">sign_in_count :integer</text>
<text text-anchor="start" x="21" y="-415.8" font-family="Times,serif" font-size="14.00">current_sign_in_at :datetime</text>
<text text-anchor="start" x="21" y="-400.8" font-family="Times,serif" font-size="14.00">last_sign_in_at :datetime</text>
<text text-anchor="start" x="21" y="-385.8" font-family="Times,serif" font-size="14.00">current_sign_in_ip :inet</text>
<text text-anchor="start" x="21" y="-370.8" font-family="Times,serif" font-size="14.00">last_sign_in_ip :inet</text>
<text text-anchor="start" x="21" y="-355.8" font-family="Times,serif" font-size="14.00">created_at :datetime</text>
<text text-anchor="start" x="21" y="-340.8" font-family="Times,serif" font-size="14.00">updated_at :datetime</text>
<text text-anchor="start" x="21" y="-325.8" font-family="Times,serif" font-size="14.00">name :string</text>
<text text-anchor="start" x="21" y="-310.8" font-family="Times,serif" font-size="14.00">role :integer</text>
</g>
<!-- Homework -->
<g id="node6" class="node"><title>Homework</title>
<path fill="none" stroke="black" d="M151.5,-144.5C151.5,-144.5 258.5,-144.5 258.5,-144.5 264.5,-144.5 270.5,-150.5 270.5,-156.5 270.5,-156.5 270.5,-253.5 270.5,-253.5 270.5,-259.5 264.5,-265.5 258.5,-265.5 258.5,-265.5 151.5,-265.5 151.5,-265.5 145.5,-265.5 139.5,-259.5 139.5,-253.5 139.5,-253.5 139.5,-156.5 139.5,-156.5 139.5,-150.5 145.5,-144.5 151.5,-144.5"/>
<text text-anchor="middle" x="205" y="-250.3" font-family="Times,serif" font-size="14.00">Homework</text>
<polyline fill="none" stroke="black" points="139.5,-242.5 270.5,-242.5 "/>
<text text-anchor="start" x="147.5" y="-227.3" font-family="Times,serif" font-size="14.00">id :integer</text>
<text text-anchor="start" x="147.5" y="-212.3" font-family="Times,serif" font-size="14.00">description :text</text>
<text text-anchor="start" x="147.5" y="-197.3" font-family="Times,serif" font-size="14.00">part_id :integer</text>
<text text-anchor="start" x="147.5" y="-182.3" font-family="Times,serif" font-size="14.00">user_id :integer</text>
<text text-anchor="start" x="147.5" y="-167.3" font-family="Times,serif" font-size="14.00">created_at :datetime</text>
<text text-anchor="start" x="147.5" y="-152.3" font-family="Times,serif" font-size="14.00">updated_at :datetime</text>
</g>
<!-- User&#45;&gt;Homework -->
<g id="edge1" class="edge"><title>User&#45;&gt;Homework</title>
<path fill="none" stroke="#bb568d" d="M168.281,-295.404C171.123,-288.483 173.917,-281.681 176.615,-275.112"/>
<ellipse fill="none" stroke="#bb568d" cx="166.702" cy="-299.247" rx="4.00001" ry="4.00001"/>
<polygon fill="#bb568d" stroke="#bb568d" points="176.695,-274.916 184.657,-267.376 178.595,-270.291 180.494,-265.666 180.494,-265.666 180.494,-265.666 178.595,-270.291 176.332,-263.956 176.695,-274.916 176.695,-274.916"/>
</g>
<!-- Part -->
<g id="node3" class="node"><title>Part</title>
<path fill="none" stroke="black" d="M243.5,-348C243.5,-348 350.5,-348 350.5,-348 356.5,-348 362.5,-354 362.5,-360 362.5,-360 362.5,-502 362.5,-502 362.5,-508 356.5,-514 350.5,-514 350.5,-514 243.5,-514 243.5,-514 237.5,-514 231.5,-508 231.5,-502 231.5,-502 231.5,-360 231.5,-360 231.5,-354 237.5,-348 243.5,-348"/>
<text text-anchor="middle" x="297" y="-498.8" font-family="Times,serif" font-size="14.00">Part</text>
<polyline fill="none" stroke="black" points="231.5,-491 362.5,-491 "/>
<text text-anchor="start" x="239.5" y="-475.8" font-family="Times,serif" font-size="14.00">id :integer</text>
<text text-anchor="start" x="239.5" y="-460.8" font-family="Times,serif" font-size="14.00">title :string</text>
<text text-anchor="start" x="239.5" y="-445.8" font-family="Times,serif" font-size="14.00">description :text</text>
<text text-anchor="start" x="239.5" y="-430.8" font-family="Times,serif" font-size="14.00">course_id :integer</text>
<text text-anchor="start" x="239.5" y="-415.8" font-family="Times,serif" font-size="14.00">start_time :datetime</text>
<text text-anchor="start" x="239.5" y="-400.8" font-family="Times,serif" font-size="14.00">end_time :datetime</text>
<text text-anchor="start" x="239.5" y="-385.8" font-family="Times,serif" font-size="14.00">status :integer</text>
<text text-anchor="start" x="239.5" y="-370.8" font-family="Times,serif" font-size="14.00">created_at :datetime</text>
<text text-anchor="start" x="239.5" y="-355.8" font-family="Times,serif" font-size="14.00">updated_at :datetime</text>
</g>
<!-- Part&#45;&gt;Homework -->
<g id="edge2" class="edge"><title>Part&#45;&gt;Homework</title>
<path fill="none" stroke="#979dc8" d="M260.096,-340.146C251.176,-318.429 241.781,-295.555 233.326,-274.968"/>
<ellipse fill="none" stroke="#979dc8" cx="261.745" cy="-344.163" rx="4.00001" ry="4.00001"/>
<polygon fill="#979dc8" stroke="#979dc8" points="233.312,-274.933 233.675,-263.973 231.412,-270.308 229.513,-265.683 229.513,-265.683 229.513,-265.683 231.412,-270.308 225.35,-267.393 233.312,-274.933 233.312,-274.933"/>
</g>
<!-- Course -->
<g id="node4" class="node"><title>Course</title>
<path fill="none" stroke="black" d="M243.5,-597C243.5,-597 350.5,-597 350.5,-597 356.5,-597 362.5,-603 362.5,-609 362.5,-609 362.5,-691 362.5,-691 362.5,-697 356.5,-703 350.5,-703 350.5,-703 243.5,-703 243.5,-703 237.5,-703 231.5,-697 231.5,-691 231.5,-691 231.5,-609 231.5,-609 231.5,-603 237.5,-597 243.5,-597"/>
<text text-anchor="middle" x="297" y="-687.8" font-family="Times,serif" font-size="14.00">Course</text>
<polyline fill="none" stroke="black" points="231.5,-680 362.5,-680 "/>
<text text-anchor="start" x="239.5" y="-664.8" font-family="Times,serif" font-size="14.00">id :integer</text>
<text text-anchor="start" x="239.5" y="-649.8" font-family="Times,serif" font-size="14.00">title :string</text>
<text text-anchor="start" x="239.5" y="-634.8" font-family="Times,serif" font-size="14.00">description :text</text>
<text text-anchor="start" x="239.5" y="-619.8" font-family="Times,serif" font-size="14.00">created_at :datetime</text>
<text text-anchor="start" x="239.5" y="-604.8" font-family="Times,serif" font-size="14.00">updated_at :datetime</text>
</g>
<!-- Course&#45;&gt;Part -->
<g id="edge3" class="edge"><title>Course&#45;&gt;Part</title>
<path fill="none" stroke="#d062f8" d="M297,-588.458C297,-568.629 297,-546.126 297,-524.491"/>
<ellipse fill="none" stroke="#d062f8" cx="297" cy="-592.747" rx="4" ry="4"/>
<polygon fill="#d062f8" stroke="#d062f8" points="297,-524.292 301.5,-514.292 297,-519.292 297,-514.292 297,-514.292 297,-514.292 297,-519.292 292.5,-514.292 297,-524.292 297,-524.292"/>
</g>
<!-- Comment -->
<g id="node5" class="node"><title>Comment</title>
<path fill="none" stroke="black" d="M148.5,-1C148.5,-1 261.5,-1 261.5,-1 267.5,-1 273.5,-7 273.5,-13 273.5,-13 273.5,-95 273.5,-95 273.5,-101 267.5,-107 261.5,-107 261.5,-107 148.5,-107 148.5,-107 142.5,-107 136.5,-101 136.5,-95 136.5,-95 136.5,-13 136.5,-13 136.5,-7 142.5,-1 148.5,-1"/>
<text text-anchor="middle" x="205" y="-91.8" font-family="Times,serif" font-size="14.00">Comment</text>
<polyline fill="none" stroke="black" points="136.5,-84 273.5,-84 "/>
<text text-anchor="start" x="144.5" y="-68.8" font-family="Times,serif" font-size="14.00">id :integer</text>
<text text-anchor="start" x="144.5" y="-53.8" font-family="Times,serif" font-size="14.00">text :text</text>
<text text-anchor="start" x="144.5" y="-38.8" font-family="Times,serif" font-size="14.00">homework_id :integer</text>
<text text-anchor="start" x="144.5" y="-23.8" font-family="Times,serif" font-size="14.00">created_at :datetime</text>
<text text-anchor="start" x="144.5" y="-8.8" font-family="Times,serif" font-size="14.00">updated_at :datetime</text>
</g>
<!-- Homework&#45;&gt;Comment -->
<g id="edge4" class="edge"><title>Homework&#45;&gt;Comment</title>
<path fill="none" stroke="#822e0e" d="M205,-136.113C205,-129.865 205,-123.555 205,-117.36"/>
<ellipse fill="none" stroke="#822e0e" cx="205" cy="-140.255" rx="4" ry="4"/>
<polygon fill="#822e0e" stroke="#822e0e" points="205,-117.074 209.5,-107.074 205,-112.074 205,-107.074 205,-107.074 205,-107.074 205,-112.074 200.5,-107.074 205,-117.074 205,-117.074"/>
</g>
</g>
</svg>
