<?xml version="1.0" encoding="UTF-8" standalone="no"?>
<!DOCTYPE svg PUBLIC "-//W3C//DTD SVG 1.1//EN"
 "http://www.w3.org/Graphics/SVG/1.1/DTD/svg11.dtd">
<!-- Generated by graphviz version 2.36.0 (20140111.2315)
 -->
<!-- Title: models_diagram Pages: 1 -->
<svg width="310pt" height="302pt"
 viewBox="0.00 0.00 310.00 302.00" xmlns="http://www.w3.org/2000/svg" xmlns:xlink="http://www.w3.org/1999/xlink">
<g id="graph0" class="graph" transform="scale(1 1) rotate(0) translate(4 298)">
<title>models_diagram</title>
<polygon fill="white" stroke="none" points="-4,4 -4,-298 306,-298 306,4 -4,4"/>
<!-- _diagram_info -->
<g id="node1" class="node"><title>_diagram_info</title>
<text text-anchor="start" x="7" y="-279.6" font-family="Times,serif" font-size="13.00">Models diagram</text>
<text text-anchor="start" x="7" y="-265.6" font-family="Times,serif" font-size="13.00">Date: Jan 25 2015 &#45; 18:27</text>
<text text-anchor="start" x="7" y="-251.6" font-family="Times,serif" font-size="13.00">Migration version: 20150122200112</text>
<text text-anchor="start" x="7" y="-237.6" font-family="Times,serif" font-size="13.00">Generated by RailRoady 1.3.0</text>
<text text-anchor="start" x="7" y="-223.6" font-family="Times,serif" font-size="13.00">http://railroady.prestonlee.com</text>
</g>
<!-- User -->
<g id="node2" class="node"><title>User</title>
<ellipse fill="none" stroke="black" cx="195" cy="-162" rx="26.949" ry="18"/>
<text text-anchor="middle" x="195" y="-158.3" font-family="Times,serif" font-size="14.00">User</text>
</g>
<!-- Homework -->
<g id="node6" class="node"><title>Homework</title>
<ellipse fill="none" stroke="black" cx="231" cy="-90" rx="50.5427" ry="18"/>
<text text-anchor="middle" x="231" y="-86.3" font-family="Times,serif" font-size="14.00">Homework</text>
</g>
<!-- User&#45;&gt;Homework -->
<g id="edge1" class="edge"><title>User&#45;&gt;Homework</title>
<path fill="none" stroke="#c47979" d="M207.132,-137.409C210.448,-130.963 214.061,-123.937 217.45,-117.348"/>
<ellipse fill="none" stroke="#c47979" cx="205.179" cy="-141.207" rx="4.00002" ry="4.00002"/>
<polygon fill="#c47979" stroke="#c47979" points="217.62,-117.017 226.195,-110.182 219.907,-112.57 222.193,-108.124 222.193,-108.124 222.193,-108.124 219.907,-112.57 218.192,-106.066 217.62,-117.017 217.62,-117.017"/>
</g>
<!-- Part -->
<g id="node3" class="node"><title>Part</title>
<ellipse fill="none" stroke="black" cx="267" cy="-162" rx="27" ry="18"/>
<text text-anchor="middle" x="267" y="-158.3" font-family="Times,serif" font-size="14.00">Part</text>
</g>
<!-- Part&#45;&gt;Homework -->
<g id="edge2" class="edge"><title>Part&#45;&gt;Homework</title>
<path fill="none" stroke="#eeed7c" d="M254.868,-137.409C251.552,-130.963 247.939,-123.937 244.55,-117.348"/>
<ellipse fill="none" stroke="#eeed7c" cx="256.821" cy="-141.207" rx="4.00002" ry="4.00002"/>
<polygon fill="#eeed7c" stroke="#eeed7c" points="244.38,-117.017 243.808,-106.066 242.093,-112.57 239.807,-108.124 239.807,-108.124 239.807,-108.124 242.093,-112.57 235.805,-110.182 244.38,-117.017 244.38,-117.017"/>
</g>
<!-- Course -->
<g id="node4" class="node"><title>Course</title>
<ellipse fill="none" stroke="black" cx="267" cy="-255" rx="35.6194" ry="18"/>
<text text-anchor="middle" x="267" y="-251.3" font-family="Times,serif" font-size="14.00">Course</text>
</g>
<!-- Course&#45;&gt;Part -->
<g id="edge3" class="edge"><title>Course&#45;&gt;Part</title>
<path fill="none" stroke="#f749ba" d="M267,-228.729C267,-216.725 267,-202.362 267,-190.129"/>
<ellipse fill="none" stroke="#f749ba" cx="267" cy="-232.884" rx="4" ry="4"/>
<polygon fill="#f749ba" stroke="#f749ba" points="267,-190.04 271.5,-180.04 267,-185.04 267,-180.04 267,-180.04 267,-180.04 267,-185.04 262.5,-180.04 267,-190.04 267,-190.04"/>
</g>
<!-- Comment -->
<g id="node5" class="node"><title>Comment</title>
<ellipse fill="none" stroke="black" cx="231" cy="-18" rx="46.2191" ry="18"/>
<text text-anchor="middle" x="231" y="-14.3" font-family="Times,serif" font-size="14.00">Comment</text>
</g>
<!-- Homework&#45;&gt;Comment -->
<g id="edge4" class="edge"><title>Homework&#45;&gt;Comment</title>
<path fill="none" stroke="#1aa210" d="M231,-63.6398C231,-58.0629 231,-52.1319 231,-46.4761"/>
<ellipse fill="none" stroke="#1aa210" cx="231" cy="-67.6966" rx="4" ry="4"/>
<polygon fill="#1aa210" stroke="#1aa210" points="231,-46.1043 235.5,-36.1043 231,-41.1043 231,-36.1043 231,-36.1043 231,-36.1043 231,-41.1043 226.5,-36.1044 231,-46.1043 231,-46.1043"/>
</g>
</g>
</svg>
