<?xml version="1.0" encoding="UTF-8" standalone="no"?>
<!DOCTYPE svg PUBLIC "-//W3C//DTD SVG 1.1//EN"
 "http://www.w3.org/Graphics/SVG/1.1/DTD/svg11.dtd">
<!-- Generated by graphviz version 2.36.0 (20140111.2315)
 -->
<!-- Title: models_diagram Pages: 1 -->
<svg width="635pt" height="410pt"
 viewBox="0.00 0.00 635.00 410.00" xmlns="http://www.w3.org/2000/svg" xmlns:xlink="http://www.w3.org/1999/xlink">
<g id="graph0" class="graph" transform="scale(1 1) rotate(0) translate(4 406)">
<title>models_diagram</title>
<polygon fill="white" stroke="none" points="-4,4 -4,-406 631,-406 631,4 -4,4"/>
<!-- _diagram_info -->
<g id="node1" class="node"><title>_diagram_info</title>
<text text-anchor="start" x="8" y="-387.6" font-family="Times,serif" font-size="13.00">Models diagram</text>
<text text-anchor="start" x="8" y="-373.6" font-family="Times,serif" font-size="13.00">Date: Mar 16 2015 &#45; 13:15</text>
<text text-anchor="start" x="8" y="-359.6" font-family="Times,serif" font-size="13.00">Migration version: 20150315213135</text>
<text text-anchor="start" x="8" y="-345.6" font-family="Times,serif" font-size="13.00">Generated by RailRoady 1.3.0</text>
<text text-anchor="start" x="8" y="-331.6" font-family="Times,serif" font-size="13.00">http://railroady.prestonlee.com</text>
</g>
<!-- User -->
<g id="node2" class="node"><title>User</title>
<ellipse fill="none" stroke="black" cx="259" cy="-363" rx="26.949" ry="18"/>
<text text-anchor="middle" x="259" y="-359.3" font-family="Times,serif" font-size="14.00">User</text>
</g>
<!-- Course -->
<g id="node4" class="node"><title>Course</title>
<ellipse fill="none" stroke="black" cx="329" cy="-268" rx="35.6194" ry="18"/>
<text text-anchor="middle" x="329" y="-264.3" font-family="Times,serif" font-size="14.00">Course</text>
</g>
<!-- User&#45;&gt;Course -->
<g id="edge5" class="edge"><title>User&#45;&gt;Course</title>
<path fill="none" stroke="#c03827" d="M276.728,-338.447C287.151,-324.599 300.302,-307.128 310.805,-293.174"/>
<polygon fill="#c03827" stroke="#c03827" points="276.573,-338.653 266.964,-343.937 273.566,-342.648 270.559,-346.643 270.559,-346.643 270.559,-346.643 273.566,-342.648 274.154,-349.349 276.573,-338.653 276.573,-338.653"/>
<polygon fill="#c03827" stroke="#c03827" points="310.94,-292.994 320.549,-287.71 313.947,-288.999 316.954,-285.004 316.954,-285.004 316.954,-285.004 313.947,-288.999 313.359,-282.298 310.94,-292.994 310.94,-292.994"/>
</g>
<!-- Comment -->
<g id="node6" class="node"><title>Comment</title>
<ellipse fill="none" stroke="black" cx="56" cy="-18" rx="46.2191" ry="18"/>
<text text-anchor="middle" x="56" y="-14.3" font-family="Times,serif" font-size="14.00">Comment</text>
</g>
<!-- User&#45;&gt;Comment -->
<g id="edge2" class="edge"><title>User&#45;&gt;Comment</title>
<path fill="none" stroke="#f15210" d="M241.571,-340.751C235.825,-334.724 229.08,-328.568 222,-324 161.631,-285.053 70,-340.842 70,-269 70,-269 70,-269 70,-105 70,-85.1457 66.32,-63.0441 62.7335,-46.2185"/>
<ellipse fill="none" stroke="#f15210" cx="244.267" cy="-343.713" rx="4.00002" ry="4.00002"/>
<polygon fill="#f15210" stroke="#f15210" points="62.6291,-45.7553 64.8195,-35.0104 61.5294,-40.8777 60.4297,-36.0001 60.4297,-36.0001 60.4297,-36.0001 61.5294,-40.8777 56.0399,-36.9899 62.6291,-45.7553 62.6291,-45.7553"/>
</g>
<!-- Registry -->
<g id="node7" class="node"><title>Registry</title>
<ellipse fill="none" stroke="black" cx="259" cy="-194" rx="39.9464" ry="18"/>
<text text-anchor="middle" x="259" y="-190.3" font-family="Times,serif" font-size="14.00">Registry</text>
</g>
<!-- User&#45;&gt;Registry -->
<g id="edge4" class="edge"><title>User&#45;&gt;Registry</title>
<path fill="none" stroke="#ecf0d5" d="M259,-336.628C259,-305.933 259,-254.44 259,-222.726"/>
<ellipse fill="none" stroke="#ecf0d5" cx="259" cy="-340.757" rx="4" ry="4"/>
<polygon fill="#ecf0d5" stroke="#ecf0d5" points="259,-222.399 263.5,-212.399 259,-217.399 259,-212.399 259,-212.399 259,-212.399 259,-217.399 254.5,-212.399 259,-222.399 259,-222.399"/>
</g>
<!-- Homework -->
<g id="node8" class="node"><title>Homework</title>
<ellipse fill="none" stroke="black" cx="195" cy="-106" rx="50.5427" ry="18"/>
<text text-anchor="middle" x="195" y="-102.3" font-family="Times,serif" font-size="14.00">Homework</text>
</g>
<!-- User&#45;&gt;Homework -->
<g id="edge1" class="edge"><title>User&#45;&gt;Homework</title>
<path fill="none" stroke="#a1bb68" d="M249.527,-337.479C238.514,-308.081 220.508,-257.119 210,-212 203.926,-185.918 199.912,-155.584 197.578,-134.246"/>
<ellipse fill="none" stroke="#a1bb68" cx="251.022" cy="-341.435" rx="4.00001" ry="4.00001"/>
<polygon fill="#a1bb68" stroke="#a1bb68" points="197.574,-134.211 201.013,-123.799 197.056,-129.238 196.537,-124.265 196.537,-124.265 196.537,-124.265 197.056,-129.238 192.061,-124.732 197.574,-134.211 197.574,-134.211"/>
</g>
<!-- Rating -->
<g id="node9" class="node"><title>Rating</title>
<ellipse fill="none" stroke="black" cx="593" cy="-18" rx="34.1708" ry="18"/>
<text text-anchor="middle" x="593" y="-14.3" font-family="Times,serif" font-size="14.00">Rating</text>
</g>
<!-- User&#45;&gt;Rating -->
<g id="edge3" class="edge"><title>User&#45;&gt;Rating</title>
<path fill="none" stroke="#713784" d="M294.301,-360.432C385.34,-355.431 621,-336.014 621,-269 621,-269 621,-269 621,-105 621,-83.9986 613.357,-61.467 606.057,-44.7368"/>
<ellipse fill="none" stroke="#713784" cx="290.203" cy="-360.648" rx="4" ry="4"/>
<polygon fill="#713784" stroke="#713784" points="606.039,-44.6968 605.947,-33.7313 603.949,-40.1545 601.859,-35.6121 601.859,-35.6121 601.859,-35.6121 603.949,-40.1545 597.771,-37.4929 606.039,-44.6968 606.039,-44.6968"/>
</g>
<!-- Part -->
<g id="node3" class="node"><title>Part</title>
<ellipse fill="none" stroke="black" cx="344" cy="-194" rx="27" ry="18"/>
<text text-anchor="middle" x="344" y="-190.3" font-family="Times,serif" font-size="14.00">Part</text>
</g>
<!-- Part&#45;&gt;Homework -->
<g id="edge7" class="edge"><title>Part&#45;&gt;Homework</title>
<path fill="none" stroke="#5f29cb" d="M317.227,-177.547C292.646,-163.36 256.093,-142.262 229.365,-126.835"/>
<ellipse fill="none" stroke="#5f29cb" cx="320.75" cy="-179.58" rx="4.00002" ry="4.00002"/>
<polygon fill="#5f29cb" stroke="#5f29cb" points="229.017,-126.634 222.606,-117.738 224.687,-124.135 220.356,-121.635 220.356,-121.635 220.356,-121.635 224.687,-124.135 218.107,-125.533 229.017,-126.634 229.017,-126.634"/>
</g>
<!-- Bootsy::ImageGallery -->
<g id="node10" class="node"><title>Bootsy::ImageGallery</title>
<ellipse fill="none" stroke="black" cx="336" cy="-18" rx="89.0632" ry="18"/>
<text text-anchor="middle" x="336" y="-14.3" font-family="Times,serif" font-size="14.00">Bootsy::ImageGallery</text>
</g>
<!-- Part&#45;&gt;Bootsy::ImageGallery -->
<g id="edge6" class="edge"><title>Part&#45;&gt;Bootsy::ImageGallery</title>
<path fill="none" stroke="#24166e" d="M342.849,-167.963C341.334,-135.012 338.685,-77.4088 337.164,-44.3184"/>
<ellipse fill="none" stroke="#24166e" cx="343.035" cy="-172.004" rx="4" ry="4"/>
<ellipse fill="#24166e" stroke="#24166e" cx="336.969" cy="-40.0654" rx="4" ry="4"/>
<text text-anchor="middle" x="400.5" y="-102.3" font-family="Times,serif" font-size="14.00">bootsy_image_gallery</text>
</g>
<!-- Course&#45;&gt;Part -->
<g id="edge9" class="edge"><title>Course&#45;&gt;Part</title>
<path fill="none" stroke="#afdc5e" d="M334.216,-241.965C335.572,-235.452 337.04,-228.41 338.415,-221.809"/>
<ellipse fill="none" stroke="#afdc5e" cx="333.371" cy="-246.021" rx="4.00001" ry="4.00001"/>
<polygon fill="#afdc5e" stroke="#afdc5e" points="338.431,-221.73 344.876,-212.858 339.451,-216.835 340.471,-211.941 340.471,-211.941 340.471,-211.941 339.451,-216.835 336.065,-211.023 338.431,-221.73 338.431,-221.73"/>
</g>
<!-- Course&#45;&gt;Registry -->
<g id="edge10" class="edge"><title>Course&#45;&gt;Registry</title>
<path fill="none" stroke="#7e44a6" d="M308.099,-245.502C299.798,-236.963 290.226,-227.118 281.75,-218.4"/>
<ellipse fill="none" stroke="#7e44a6" cx="311.023" cy="-248.509" rx="4.00002" ry="4.00002"/>
<polygon fill="#7e44a6" stroke="#7e44a6" points="281.615,-218.261 277.87,-207.954 278.129,-214.676 274.644,-211.091 274.644,-211.091 274.644,-211.091 278.129,-214.676 271.418,-214.228 281.615,-218.261 281.615,-218.261"/>
</g>
<!-- Course&#45;&gt;Bootsy::ImageGallery -->
<g id="edge8" class="edge"><title>Course&#45;&gt;Bootsy::ImageGallery</title>
<path fill="none" stroke="#7dd0f9" d="M356.382,-248.498C389.394,-224.348 443.161,-178.653 465,-124 470.937,-109.142 473.224,-101.725 465,-88 449.851,-62.7176 421.929,-46.178 395.927,-35.6501"/>
<ellipse fill="none" stroke="#7dd0f9" cx="352.919" cy="-250.986" rx="4.00002" ry="4.00002"/>
<ellipse fill="#7dd0f9" stroke="#7dd0f9" cx="392.029" cy="-34.1457" rx="4.00001" ry="4.00001"/>
<text text-anchor="middle" x="516.5" y="-146.3" font-family="Times,serif" font-size="14.00">bootsy_image_gallery</text>
</g>
<!-- Attachment -->
<g id="node5" class="node"><title>Attachment</title>
<ellipse fill="none" stroke="black" cx="172" cy="-18" rx="51.4931" ry="18"/>
<text text-anchor="middle" x="172" y="-14.3" font-family="Times,serif" font-size="14.00">Attachment</text>
</g>
<!-- Homework&#45;&gt;Attachment -->
<g id="edge14" class="edge"><title>Homework&#45;&gt;Attachment</title>
<path fill="none" stroke="#799cf1" d="M184.52,-80.65C183.217,-77.1167 181.995,-73.4931 181,-70 178.832,-62.3908 177.091,-53.9866 175.739,-46.233"/>
<ellipse fill="none" stroke="#799cf1" cx="185.994" cy="-84.4283" rx="4.00001" ry="4.00001"/>
<polygon fill="#799cf1" stroke="#799cf1" points="175.714,-46.0736 178.578,-35.4884 174.924,-41.1363 174.135,-36.1991 174.135,-36.1991 174.135,-36.1991 174.924,-41.1363 169.691,-36.9098 175.714,-46.0736 175.714,-46.0736"/>
</g>
<!-- Homework&#45;&gt;Comment -->
<g id="edge12" class="edge"><title>Homework&#45;&gt;Comment</title>
<path fill="none" stroke="#d8f892" d="M163.866,-85.7371C141.304,-71.7781 110.887,-52.9587 88.1042,-38.8631"/>
<ellipse fill="none" stroke="#d8f892" cx="167.386" cy="-87.9153" rx="4.00002" ry="4.00002"/>
<polygon fill="#d8f892" stroke="#d8f892" points="87.9753,-38.7833 81.839,-29.6951 83.7233,-36.1526 79.4714,-33.5218 79.4714,-33.5218 79.4714,-33.5218 83.7233,-36.1526 77.1037,-37.3486 87.9753,-38.7833 87.9753,-38.7833"/>
</g>
<!-- Homework&#45;&gt;Rating -->
<g id="edge13" class="edge"><title>Homework&#45;&gt;Rating</title>
<path fill="none" stroke="#1a2e3d" d="M244.882,-94.2214C324.426,-77.0336 478.505,-43.7401 552.031,-27.8526"/>
<ellipse fill="none" stroke="#1a2e3d" cx="240.75" cy="-95.1142" rx="4.00001" ry="4.00001"/>
<polygon fill="#1a2e3d" stroke="#1a2e3d" points="552.081,-27.8419 562.806,-30.1283 556.968,-26.7859 561.855,-25.7298 561.855,-25.7298 561.855,-25.7298 556.968,-26.7859 560.905,-21.3313 552.081,-27.8419 552.081,-27.8419"/>
</g>
<!-- Homework&#45;&gt;Bootsy::ImageGallery -->
<g id="edge11" class="edge"><title>Homework&#45;&gt;Bootsy::ImageGallery</title>
<path fill="none" stroke="#785c93" d="M192.388,-79.8358C192.769,-70.7389 194.899,-60.9966 201,-54 209.364,-44.4079 233.624,-36.7917 259.314,-31.146"/>
<ellipse fill="none" stroke="#785c93" cx="192.427" cy="-83.9116" rx="4" ry="4"/>
<ellipse fill="#785c93" stroke="#785c93" cx="263.403" cy="-30.2832" rx="4.00001" ry="4.00001"/>
<text text-anchor="middle" x="261.5" y="-58.3" font-family="Times,serif" font-size="14.00">bootsy_image_gallery</text>
</g>
</g>
</svg>
