<?xml version="1.0" encoding="UTF-8" standalone="no"?>
<!DOCTYPE svg PUBLIC "-//W3C//DTD SVG 1.1//EN"
 "http://www.w3.org/Graphics/SVG/1.1/DTD/svg11.dtd">
<!-- Generated by graphviz version 2.36.0 (20140111.2315)
 -->
<!-- Title: models_diagram Pages: 1 -->
<svg width="754pt" height="1056pt"
 viewBox="0.00 0.00 754.00 1056.00" xmlns="http://www.w3.org/2000/svg" xmlns:xlink="http://www.w3.org/1999/xlink">
<g id="graph0" class="graph" transform="scale(1 1) rotate(0) translate(4 1052)">
<title>models_diagram</title>
<polygon fill="white" stroke="none" points="-4,4 -4,-1052 750,-1052 750,4 -4,4"/>
<!-- _diagram_info -->
<g id="node1" class="node"><title>_diagram_info</title>
<text text-anchor="start" x="8" y="-913.6" font-family="Times,serif" font-size="13.00">Models diagram</text>
<text text-anchor="start" x="8" y="-899.6" font-family="Times,serif" font-size="13.00">Date: Mar 16 2015 &#45; 13:15</text>
<text text-anchor="start" x="8" y="-885.6" font-family="Times,serif" font-size="13.00">Migration version: 20150315213135</text>
<text text-anchor="start" x="8" y="-871.6" font-family="Times,serif" font-size="13.00">Generated by RailRoady 1.3.0</text>
<text text-anchor="start" x="8" y="-857.6" font-family="Times,serif" font-size="13.00">http://railroady.prestonlee.com</text>
</g>
<!-- User -->
<g id="node2" class="node"><title>User</title>
<path fill="none" stroke="black" d="M244,-731C244,-731 420,-731 420,-731 426,-731 432,-737 432,-743 432,-743 432,-1035 432,-1035 432,-1041 426,-1047 420,-1047 420,-1047 244,-1047 244,-1047 238,-1047 232,-1041 232,-1035 232,-1035 232,-743 232,-743 232,-737 238,-731 244,-731"/>
<text text-anchor="middle" x="332" y="-1031.8" font-family="Times,serif" font-size="14.00">User</text>
<polyline fill="none" stroke="black" points="232,-1024 432,-1024 "/>
<text text-anchor="start" x="240" y="-1008.8" font-family="Times,serif" font-size="14.00">id :integer</text>
<text text-anchor="start" x="240" y="-993.8" font-family="Times,serif" font-size="14.00">email :string</text>
<text text-anchor="start" x="240" y="-978.8" font-family="Times,serif" font-size="14.00">encrypted_password :string</text>
<text text-anchor="start" x="240" y="-963.8" font-family="Times,serif" font-size="14.00">reset_password_token :string</text>
<text text-anchor="start" x="240" y="-948.8" font-family="Times,serif" font-size="14.00">reset_password_sent_at :datetime</text>
<text text-anchor="start" x="240" y="-933.8" font-family="Times,serif" font-size="14.00">remember_created_at :datetime</text>
<text text-anchor="start" x="240" y="-918.8" font-family="Times,serif" font-size="14.00">sign_in_count :integer</text>
<text text-anchor="start" x="240" y="-903.8" font-family="Times,serif" font-size="14.00">current_sign_in_at :datetime</text>
<text text-anchor="start" x="240" y="-888.8" font-family="Times,serif" font-size="14.00">last_sign_in_at :datetime</text>
<text text-anchor="start" x="240" y="-873.8" font-family="Times,serif" font-size="14.00">current_sign_in_ip :inet</text>
<text text-anchor="start" x="240" y="-858.8" font-family="Times,serif" font-size="14.00">last_sign_in_ip :inet</text>
<text text-anchor="start" x="240" y="-843.8" font-family="Times,serif" font-size="14.00">created_at :datetime</text>
<text text-anchor="start" x="240" y="-828.8" font-family="Times,serif" font-size="14.00">updated_at :datetime</text>
<text text-anchor="start" x="240" y="-813.8" font-family="Times,serif" font-size="14.00">name :string</text>
<text text-anchor="start" x="240" y="-798.8" font-family="Times,serif" font-size="14.00">cell_phone :string</text>
<text text-anchor="start" x="240" y="-783.8" font-family="Times,serif" font-size="14.00">information :text</text>
<text text-anchor="start" x="240" y="-768.8" font-family="Times,serif" font-size="14.00">role :integer</text>
<text text-anchor="start" x="240" y="-753.8" font-family="Times,serif" font-size="14.00">avatar :string</text>
<text text-anchor="start" x="240" y="-738.8" font-family="Times,serif" font-size="14.00">course_grants :integer</text>
</g>
<!-- Course -->
<g id="node4" class="node"><title>Course</title>
<path fill="none" stroke="black" d="M385.5,-570.5C385.5,-570.5 498.5,-570.5 498.5,-570.5 504.5,-570.5 510.5,-576.5 510.5,-582.5 510.5,-582.5 510.5,-679.5 510.5,-679.5 510.5,-685.5 504.5,-691.5 498.5,-691.5 498.5,-691.5 385.5,-691.5 385.5,-691.5 379.5,-691.5 373.5,-685.5 373.5,-679.5 373.5,-679.5 373.5,-582.5 373.5,-582.5 373.5,-576.5 379.5,-570.5 385.5,-570.5"/>
<text text-anchor="middle" x="442" y="-676.3" font-family="Times,serif" font-size="14.00">Course</text>
<polyline fill="none" stroke="black" points="373.5,-668.5 510.5,-668.5 "/>
<text text-anchor="start" x="381.5" y="-653.3" font-family="Times,serif" font-size="14.00">id :integer</text>
<text text-anchor="start" x="381.5" y="-638.3" font-family="Times,serif" font-size="14.00">title :string</text>
<text text-anchor="start" x="381.5" y="-623.3" font-family="Times,serif" font-size="14.00">description :text</text>
<text text-anchor="start" x="381.5" y="-608.3" font-family="Times,serif" font-size="14.00">created_at :datetime</text>
<text text-anchor="start" x="381.5" y="-593.3" font-family="Times,serif" font-size="14.00">updated_at :datetime</text>
<text text-anchor="start" x="381.5" y="-578.3" font-family="Times,serif" font-size="14.00">enrollment_ket :string</text>
</g>
<!-- User&#45;&gt;Course -->
<g id="edge5" class="edge"><title>User&#45;&gt;Course</title>
<path fill="none" stroke="#96bedf" d="M403.486,-721.632C406.526,-714.557 409.493,-707.654 412.343,-701.021"/>
<polygon fill="#96bedf" stroke="#96bedf" points="403.419,-721.789 395.337,-729.2 401.445,-726.382 399.471,-730.976 399.471,-730.976 399.471,-730.976 401.445,-726.382 403.606,-732.753 403.419,-721.789 403.419,-721.789"/>
<polygon fill="#96bedf" stroke="#96bedf" points="412.482,-700.696 420.564,-693.285 414.456,-696.102 416.43,-691.508 416.43,-691.508 416.43,-691.508 414.456,-696.102 412.295,-689.732 412.482,-700.696 412.482,-700.696"/>
</g>
<!-- Comment -->
<g id="node6" class="node"><title>Comment</title>
<path fill="none" stroke="black" d="M71.5,-8.5C71.5,-8.5 184.5,-8.5 184.5,-8.5 190.5,-8.5 196.5,-14.5 196.5,-20.5 196.5,-20.5 196.5,-117.5 196.5,-117.5 196.5,-123.5 190.5,-129.5 184.5,-129.5 184.5,-129.5 71.5,-129.5 71.5,-129.5 65.5,-129.5 59.5,-123.5 59.5,-117.5 59.5,-117.5 59.5,-20.5 59.5,-20.5 59.5,-14.5 65.5,-8.5 71.5,-8.5"/>
<text text-anchor="middle" x="128" y="-114.3" font-family="Times,serif" font-size="14.00">Comment</text>
<polyline fill="none" stroke="black" points="59.5,-106.5 196.5,-106.5 "/>
<text text-anchor="start" x="67.5" y="-91.3" font-family="Times,serif" font-size="14.00">id :integer</text>
<text text-anchor="start" x="67.5" y="-76.3" font-family="Times,serif" font-size="14.00">text :text</text>
<text text-anchor="start" x="67.5" y="-61.3" font-family="Times,serif" font-size="14.00">homework_id :integer</text>
<text text-anchor="start" x="67.5" y="-46.3" font-family="Times,serif" font-size="14.00">user_id :integer</text>
<text text-anchor="start" x="67.5" y="-31.3" font-family="Times,serif" font-size="14.00">created_at :datetime</text>
<text text-anchor="start" x="67.5" y="-16.3" font-family="Times,serif" font-size="14.00">updated_at :datetime</text>
</g>
<!-- User&#45;&gt;Comment -->
<g id="edge2" class="edge"><title>User&#45;&gt;Comment</title>
<path fill="none" stroke="#c85044" d="M227.591,-728.992C200.119,-684.394 178,-644.58 178,-632 178,-632 178,-632 178,-250 178,-212.51 167.806,-172.179 156.624,-139.214"/>
<ellipse fill="none" stroke="#c85044" cx="229.757" cy="-732.493" rx="4.00002" ry="4.00002"/>
<polygon fill="#c85044" stroke="#c85044" points="156.591,-139.118 157.541,-128.193 154.942,-134.398 153.293,-129.677 153.293,-129.677 153.293,-129.677 154.942,-134.398 149.045,-131.161 156.591,-139.118 156.591,-139.118"/>
</g>
<!-- Registry -->
<g id="node7" class="node"><title>Registry</title>
<path fill="none" stroke="black" d="M278.5,-387.5C278.5,-387.5 385.5,-387.5 385.5,-387.5 391.5,-387.5 397.5,-393.5 397.5,-399.5 397.5,-399.5 397.5,-496.5 397.5,-496.5 397.5,-502.5 391.5,-508.5 385.5,-508.5 385.5,-508.5 278.5,-508.5 278.5,-508.5 272.5,-508.5 266.5,-502.5 266.5,-496.5 266.5,-496.5 266.5,-399.5 266.5,-399.5 266.5,-393.5 272.5,-387.5 278.5,-387.5"/>
<text text-anchor="middle" x="332" y="-493.3" font-family="Times,serif" font-size="14.00">Registry</text>
<polyline fill="none" stroke="black" points="266.5,-485.5 397.5,-485.5 "/>
<text text-anchor="start" x="274.5" y="-470.3" font-family="Times,serif" font-size="14.00">id :integer</text>
<text text-anchor="start" x="274.5" y="-455.3" font-family="Times,serif" font-size="14.00">user_id :integer</text>
<text text-anchor="start" x="274.5" y="-440.3" font-family="Times,serif" font-size="14.00">course_id :integer</text>
<text text-anchor="start" x="274.5" y="-425.3" font-family="Times,serif" font-size="14.00">role :integer</text>
<text text-anchor="start" x="274.5" y="-410.3" font-family="Times,serif" font-size="14.00">created_at :datetime</text>
<text text-anchor="start" x="274.5" y="-395.3" font-family="Times,serif" font-size="14.00">updated_at :datetime</text>
</g>
<!-- User&#45;&gt;Registry -->
<g id="edge4" class="edge"><title>User&#45;&gt;Registry</title>
<path fill="none" stroke="#4ba022" d="M332,-722.59C332,-652.126 332,-573.731 332,-518.985"/>
<ellipse fill="none" stroke="#4ba022" cx="332" cy="-726.751" rx="4" ry="4"/>
<polygon fill="#4ba022" stroke="#4ba022" points="332,-518.703 336.5,-508.703 332,-513.703 332,-508.703 332,-508.703 332,-508.703 332,-513.703 327.5,-508.704 332,-518.703 332,-518.703"/>
</g>
<!-- Homework -->
<g id="node8" class="node"><title>Homework</title>
<path fill="none" stroke="black" d="M248.5,-190.5C248.5,-190.5 355.5,-190.5 355.5,-190.5 361.5,-190.5 367.5,-196.5 367.5,-202.5 367.5,-202.5 367.5,-299.5 367.5,-299.5 367.5,-305.5 361.5,-311.5 355.5,-311.5 355.5,-311.5 248.5,-311.5 248.5,-311.5 242.5,-311.5 236.5,-305.5 236.5,-299.5 236.5,-299.5 236.5,-202.5 236.5,-202.5 236.5,-196.5 242.5,-190.5 248.5,-190.5"/>
<text text-anchor="middle" x="302" y="-296.3" font-family="Times,serif" font-size="14.00">Homework</text>
<polyline fill="none" stroke="black" points="236.5,-288.5 367.5,-288.5 "/>
<text text-anchor="start" x="244.5" y="-273.3" font-family="Times,serif" font-size="14.00">id :integer</text>
<text text-anchor="start" x="244.5" y="-258.3" font-family="Times,serif" font-size="14.00">description :text</text>
<text text-anchor="start" x="244.5" y="-243.3" font-family="Times,serif" font-size="14.00">part_id :integer</text>
<text text-anchor="start" x="244.5" y="-228.3" font-family="Times,serif" font-size="14.00">user_id :integer</text>
<text text-anchor="start" x="244.5" y="-213.3" font-family="Times,serif" font-size="14.00">created_at :datetime</text>
<text text-anchor="start" x="244.5" y="-198.3" font-family="Times,serif" font-size="14.00">updated_at :datetime</text>
</g>
<!-- User&#45;&gt;Homework -->
<g id="edge1" class="edge"><title>User&#45;&gt;Homework</title>
<path fill="none" stroke="#96d067" d="M281.023,-722.859C255.907,-619.372 235.382,-483.431 258,-364 260.7,-349.741 265.175,-334.973 270.263,-321.022"/>
<ellipse fill="none" stroke="#96d067" cx="282.04" cy="-726.996" rx="4.00001" ry="4.00001"/>
<polygon fill="#96d067" stroke="#96d067" points="270.324,-320.862 278.076,-313.107 272.096,-316.187 273.869,-311.511 273.869,-311.511 273.869,-311.511 272.096,-316.187 269.661,-309.916 270.324,-320.862 270.324,-320.862"/>
</g>
<!-- Rating -->
<g id="node9" class="node"><title>Rating</title>
<path fill="none" stroke="black" d="M621.5,-8.5C621.5,-8.5 734.5,-8.5 734.5,-8.5 740.5,-8.5 746.5,-14.5 746.5,-20.5 746.5,-20.5 746.5,-117.5 746.5,-117.5 746.5,-123.5 740.5,-129.5 734.5,-129.5 734.5,-129.5 621.5,-129.5 621.5,-129.5 615.5,-129.5 609.5,-123.5 609.5,-117.5 609.5,-117.5 609.5,-20.5 609.5,-20.5 609.5,-14.5 615.5,-8.5 621.5,-8.5"/>
<text text-anchor="middle" x="678" y="-114.3" font-family="Times,serif" font-size="14.00">Rating</text>
<polyline fill="none" stroke="black" points="609.5,-106.5 746.5,-106.5 "/>
<text text-anchor="start" x="617.5" y="-91.3" font-family="Times,serif" font-size="14.00">id :integer</text>
<text text-anchor="start" x="617.5" y="-76.3" font-family="Times,serif" font-size="14.00">homework_id :integer</text>
<text text-anchor="start" x="617.5" y="-61.3" font-family="Times,serif" font-size="14.00">user_id :integer</text>
<text text-anchor="start" x="617.5" y="-46.3" font-family="Times,serif" font-size="14.00">score :integer</text>
<text text-anchor="start" x="617.5" y="-31.3" font-family="Times,serif" font-size="14.00">created_at :datetime</text>
<text text-anchor="start" x="617.5" y="-16.3" font-family="Times,serif" font-size="14.00">updated_at :datetime</text>
</g>
<!-- User&#45;&gt;Rating -->
<g id="edge3" class="edge"><title>User&#45;&gt;Rating</title>
<path fill="none" stroke="#fd7f63" d="M439.941,-868.545C560.517,-839.866 739,-773.514 739,-632 739,-632 739,-632 739,-250 739,-212.01 726.661,-171.783 713.083,-139.016"/>
<ellipse fill="none" stroke="#fd7f63" cx="435.98" cy="-869.47" rx="4.00001" ry="4.00001"/>
<polygon fill="#fd7f63" stroke="#fd7f63" points="712.963,-138.736 713.175,-127.772 711,-134.138 709.036,-129.539 709.036,-129.539 709.036,-129.539 711,-134.138 704.898,-131.307 712.963,-138.736 712.963,-138.736"/>
</g>
<!-- Part -->
<g id="node3" class="node"><title>Part</title>
<path fill="none" stroke="black" d="M427.5,-365C427.5,-365 534.5,-365 534.5,-365 540.5,-365 546.5,-371 546.5,-377 546.5,-377 546.5,-519 546.5,-519 546.5,-525 540.5,-531 534.5,-531 534.5,-531 427.5,-531 427.5,-531 421.5,-531 415.5,-525 415.5,-519 415.5,-519 415.5,-377 415.5,-377 415.5,-371 421.5,-365 427.5,-365"/>
<text text-anchor="middle" x="481" y="-515.8" font-family="Times,serif" font-size="14.00">Part</text>
<polyline fill="none" stroke="black" points="415.5,-508 546.5,-508 "/>
<text text-anchor="start" x="423.5" y="-492.8" font-family="Times,serif" font-size="14.00">id :integer</text>
<text text-anchor="start" x="423.5" y="-477.8" font-family="Times,serif" font-size="14.00">title :string</text>
<text text-anchor="start" x="423.5" y="-462.8" font-family="Times,serif" font-size="14.00">description :text</text>
<text text-anchor="start" x="423.5" y="-447.8" font-family="Times,serif" font-size="14.00">course_id :integer</text>
<text text-anchor="start" x="423.5" y="-432.8" font-family="Times,serif" font-size="14.00">start_time :datetime</text>
<text text-anchor="start" x="423.5" y="-417.8" font-family="Times,serif" font-size="14.00">end_time :datetime</text>
<text text-anchor="start" x="423.5" y="-402.8" font-family="Times,serif" font-size="14.00">status :integer</text>
<text text-anchor="start" x="423.5" y="-387.8" font-family="Times,serif" font-size="14.00">created_at :datetime</text>
<text text-anchor="start" x="423.5" y="-372.8" font-family="Times,serif" font-size="14.00">updated_at :datetime</text>
</g>
<!-- Part&#45;&gt;Homework -->
<g id="edge7" class="edge"><title>Part&#45;&gt;Homework</title>
<path fill="none" stroke="#fab186" d="M409.706,-368.05C408.462,-366.689 407.226,-365.338 406,-364 392.721,-349.504 378.418,-334.018 364.796,-319.329"/>
<ellipse fill="none" stroke="#fab186" cx="412.509" cy="-371.121" rx="4.00002" ry="4.00002"/>
<polygon fill="#fab186" stroke="#fab186" points="364.546,-319.06 361.041,-308.669 361.144,-315.395 357.743,-311.73 357.743,-311.73 357.743,-311.73 361.144,-315.395 354.445,-314.791 364.546,-319.06 364.546,-319.06"/>
</g>
<!-- Bootsy::ImageGallery -->
<g id="node10" class="node"><title>Bootsy::ImageGallery</title>
<ellipse fill="none" stroke="black" cx="462" cy="-69" rx="89.0632" ry="18"/>
<text text-anchor="middle" x="462" y="-65.3" font-family="Times,serif" font-size="14.00">Bootsy::ImageGallery</text>
</g>
<!-- Part&#45;&gt;Bootsy::ImageGallery -->
<g id="edge6" class="edge"><title>Part&#45;&gt;Bootsy::ImageGallery</title>
<path fill="none" stroke="#8400ef" d="M471.41,-356.729C470.082,-341.802 468.875,-326.476 468,-312 463.22,-232.95 462.226,-139.155 462.034,-95.1523"/>
<ellipse fill="none" stroke="#8400ef" cx="471.797" cy="-360.99" rx="4" ry="4"/>
<ellipse fill="#8400ef" stroke="#8400ef" cx="462.02" cy="-91.0348" rx="4" ry="4"/>
<text text-anchor="middle" x="528.5" y="-247.3" font-family="Times,serif" font-size="14.00">bootsy_image_gallery</text>
</g>
<!-- Course&#45;&gt;Part -->
<g id="edge9" class="edge"><title>Course&#45;&gt;Part</title>
<path fill="none" stroke="#6ce21c" d="M456.562,-562.418C458.07,-555.419 459.62,-548.224 461.173,-541.016"/>
<ellipse fill="none" stroke="#6ce21c" cx="455.667" cy="-566.573" rx="4.00001" ry="4.00001"/>
<polygon fill="#6ce21c" stroke="#6ce21c" points="461.183,-540.973 467.688,-532.145 462.236,-536.085 463.289,-531.197 463.289,-531.197 463.289,-531.197 462.236,-536.085 458.89,-530.249 461.183,-540.973 461.183,-540.973"/>
</g>
<!-- Course&#45;&gt;Registry -->
<g id="edge10" class="edge"><title>Course&#45;&gt;Registry</title>
<path fill="none" stroke="#3232f1" d="M401.528,-563.406C392.399,-548.384 382.694,-532.415 373.522,-517.323"/>
<ellipse fill="none" stroke="#3232f1" cx="403.752" cy="-567.065" rx="4.00002" ry="4.00002"/>
<polygon fill="#3232f1" stroke="#3232f1" points="373.386,-517.098 372.038,-506.216 370.789,-512.825 368.192,-508.553 368.192,-508.553 368.192,-508.553 370.789,-512.825 364.347,-510.89 373.386,-517.098 373.386,-517.098"/>
</g>
<!-- Course&#45;&gt;Bootsy::ImageGallery -->
<g id="edge8" class="edge"><title>Course&#45;&gt;Bootsy::ImageGallery</title>
<path fill="none" stroke="#19f56c" d="M517.06,-578.236C531.731,-564.799 545.494,-549.203 555,-532 602.854,-445.404 581.422,-410.648 589,-312 593.153,-257.937 610.457,-239.796 589,-190 570.251,-146.489 527.106,-111.403 496.313,-90.6581"/>
<ellipse fill="none" stroke="#19f56c" cx="513.717" cy="-581.205" rx="4.00002" ry="4.00002"/>
<ellipse fill="#19f56c" stroke="#19f56c" cx="492.893" cy="-88.4023" rx="4.00002" ry="4.00002"/>
<text text-anchor="middle" x="647.5" y="-334.3" font-family="Times,serif" font-size="14.00">bootsy_image_gallery</text>
</g>
<!-- Attachment -->
<g id="node5" class="node"><title>Attachment</title>
<path fill="none" stroke="black" d="M227,-1C227,-1 343,-1 343,-1 349,-1 355,-7 355,-13 355,-13 355,-125 355,-125 355,-131 349,-137 343,-137 343,-137 227,-137 227,-137 221,-137 215,-131 215,-125 215,-125 215,-13 215,-13 215,-7 221,-1 227,-1"/>
<text text-anchor="middle" x="285" y="-121.8" font-family="Times,serif" font-size="14.00">Attachment</text>
<polyline fill="none" stroke="black" points="215,-114 355,-114 "/>
<text text-anchor="start" x="223" y="-98.8" font-family="Times,serif" font-size="14.00">id :integer</text>
<text text-anchor="start" x="223" y="-83.8" font-family="Times,serif" font-size="14.00">description :text</text>
<text text-anchor="start" x="223" y="-68.8" font-family="Times,serif" font-size="14.00">file :string</text>
<text text-anchor="start" x="223" y="-53.8" font-family="Times,serif" font-size="14.00">attachable_id :integer</text>
<text text-anchor="start" x="223" y="-38.8" font-family="Times,serif" font-size="14.00">attachable_type :string</text>
<text text-anchor="start" x="223" y="-23.8" font-family="Times,serif" font-size="14.00">created_at :datetime</text>
<text text-anchor="start" x="223" y="-8.8" font-family="Times,serif" font-size="14.00">updated_at :datetime</text>
</g>
<!-- Homework&#45;&gt;Attachment -->
<g id="edge14" class="edge"><title>Homework&#45;&gt;Attachment</title>
<path fill="none" stroke="#ee11c8" d="M295.578,-181.997C294.504,-170.635 293.384,-158.774 292.291,-147.201"/>
<ellipse fill="none" stroke="#ee11c8" cx="295.963" cy="-186.08" rx="4" ry="4"/>
<polygon fill="#ee11c8" stroke="#ee11c8" points="292.28,-147.081 295.82,-136.702 291.81,-142.103 291.34,-137.125 291.34,-137.125 291.34,-137.125 291.81,-142.103 286.86,-137.548 292.28,-147.081 292.28,-147.081"/>
</g>
<!-- Homework&#45;&gt;Comment -->
<g id="edge12" class="edge"><title>Homework&#45;&gt;Comment</title>
<path fill="none" stroke="#80f5d9" d="M238.279,-184.081C223.488,-168.781 207.729,-152.478 192.889,-137.127"/>
<ellipse fill="none" stroke="#80f5d9" cx="241.28" cy="-187.187" rx="4.00002" ry="4.00002"/>
<polygon fill="#80f5d9" stroke="#80f5d9" points="192.637,-136.866 188.922,-126.548 189.162,-133.271 185.686,-129.676 185.686,-129.676 185.686,-129.676 189.162,-133.271 182.451,-132.803 192.637,-136.866 192.637,-136.866"/>
</g>
<!-- Homework&#45;&gt;Rating -->
<g id="edge13" class="edge"><title>Homework&#45;&gt;Rating</title>
<path fill="none" stroke="#079655" d="M374.845,-215.656C393.407,-207.104 413.377,-198.075 432,-190 488.336,-165.572 504.825,-164.948 560,-138 573.205,-131.55 586.955,-124.224 600.205,-116.827"/>
<ellipse fill="none" stroke="#079655" cx="371.165" cy="-217.356" rx="4.00002" ry="4.00002"/>
<polygon fill="#079655" stroke="#079655" points="600.576,-116.617 611.497,-115.624 604.931,-114.161 609.286,-111.704 609.286,-111.704 609.286,-111.704 604.931,-114.161 607.075,-107.785 600.576,-116.617 600.576,-116.617"/>
</g>
<!-- Homework&#45;&gt;Bootsy::ImageGallery -->
<g id="edge11" class="edge"><title>Homework&#45;&gt;Bootsy::ImageGallery</title>
<path fill="none" stroke="#c84398" d="M305.575,-182.611C308.435,-172.957 312.711,-163.704 319,-156 332.622,-139.313 345.03,-148.205 364,-138 389.123,-124.485 415.586,-105.824 434.671,-91.4698"/>
<ellipse fill="none" stroke="#c84398" cx="304.567" cy="-186.542" rx="4.00001" ry="4.00001"/>
<ellipse fill="#c84398" stroke="#c84398" cx="437.915" cy="-89.0067" rx="4.00002" ry="4.00002"/>
<text text-anchor="middle" x="379.5" y="-160.3" font-family="Times,serif" font-size="14.00">bootsy_image_gallery</text>
</g>
</g>
</svg>
